<svg width="24" height="48" viewBox="0 0 24 48" fill="none" xmlns="http://www.w3.org/2000/svg">
<path d="M14.1317 48C9.23063 47.8072 -0.453966 45.8024 0.0165403 39.3253C0.0163874 37.7831 0.486588 34.3518 2.36861 32.9639C4.25064 31.5759 2.7607 28.1446 1.78048 26.6024C0.996304 23.5181 1.54523 17.3494 10.0143 17.3494V6.93976C9.62226 6.74699 8.83808 6.24578 8.83808 5.78313V1.15663C9.03412 0.771084 9.66146 0 10.6025 0H14.1313C14.7194 0.192771 15.778 0.693976 15.3075 1.15663C14.837 1.61928 14.7194 4.81928 14.7194 6.36145C14.9155 6.55422 15.0723 6.93976 14.1313 6.93976V21.3976C14.7194 22.3614 16.2486 23.7108 17.6601 21.3976C18.656 19.7654 18.5393 18.9969 18.1777 18.6859C17.9995 18.6162 17.8261 18.5563 17.6601 18.506C17.8332 18.506 18.0268 18.5562 18.1777 18.6859C20.7335 19.6866 24.2678 22.7148 21.1889 28.3373C20.7968 29.3012 20.3655 31.5759 21.777 32.9639C23.1493 34.506 25.3058 37.8217 22.9533 38.747C20.4047 38.1687 15.0723 38.1687 14.1313 42.7952L14.1317 48Z" fill="#F0B873"/>
<circle cx="12" cy="30" r="3.5" fill="#060504" stroke="#F0B873"/>
</svg>
