<svg width="157" height="50" viewBox="0 0 157 50" fill="none" xmlns="http://www.w3.org/2000/svg">
<path d="M12.9541 47C8.46141 46.8233 -0.416136 44.9855 0.0151619 39.0482C0.0150218 37.6345 0.446039 34.4892 2.17123 33.2169C3.89642 31.9446 2.53064 28.7992 1.63211 27.3855C0.913278 24.5582 1.41646 18.9036 9.17982 18.9036V9.36145C8.8204 9.18474 8.10157 8.7253 8.10157 8.3012V4.06024C8.28128 3.70683 8.85634 3 9.71894 3H12.9537C13.4928 3.17671 14.4632 3.63614 14.0319 4.06024C13.6006 4.48434 13.4928 7.41767 13.4928 8.83133C13.6725 9.00803 13.8163 9.36145 12.9537 9.36145V22.6145C13.4928 23.498 14.8945 24.7349 16.1884 22.6145C17.1014 21.1183 16.9944 20.4139 16.6629 20.1288C16.4996 20.0648 16.3406 20.0099 16.1884 19.9639C16.3471 19.9639 16.5245 20.0098 16.6629 20.1288C19.0057 21.0461 22.2455 23.8219 19.4231 28.9759C19.0637 29.8594 18.6684 31.9446 19.9623 33.2169C21.2202 34.6305 23.197 37.6699 21.0405 38.5181C18.7043 37.988 13.8163 37.988 12.9537 42.2289L12.9541 47Z" fill="#F0B873"/>
<circle cx="10.9999" cy="30.5007" r="3.16667" fill="black" stroke="#F0B873"/>
<line x1="30.5" y1="3" x2="30.5" y2="47" stroke="black"/>
<path d="M40.62 6.38L39 6.14V5.14H44.74V6.14L42.76 6.38V18.82L47.92 18.64L49.1 15.28L50.32 15.46L49.62 20H38.96V19.02L40.62 18.82V6.38ZM60.6758 20.18C60.3024 20.18 60.0224 20.1067 59.8358 19.96C59.6624 19.8133 59.5758 19.5733 59.5758 19.24V18.56C59.1358 19 58.5824 19.3867 57.9158 19.72C57.2624 20.0533 56.6024 20.22 55.9358 20.22C54.6958 20.22 53.8158 19.8867 53.2958 19.22C52.7758 18.5533 52.5158 17.4533 52.5158 15.92V10.12L51.3958 9.8V8.92L54.1958 8.66H54.2158L54.5958 8.9V15.76C54.5958 16.5333 54.6491 17.14 54.7558 17.58C54.8758 18.0067 55.0758 18.3267 55.3558 18.54C55.6491 18.74 56.0691 18.84 56.6158 18.84C57.1491 18.84 57.6491 18.7267 58.1158 18.5C58.5824 18.2733 58.9891 18.0067 59.3358 17.7V10.12L57.8958 9.8V8.92L60.9358 8.66H60.9558L61.4158 8.9V18.98H62.6158L62.5958 19.88C62.2224 19.9733 61.8958 20.0467 61.6158 20.1C61.3491 20.1533 61.0358 20.18 60.6758 20.18ZM67.6325 20.2C66.8725 20.2 66.3058 20.0267 65.9325 19.68C65.5592 19.3333 65.3725 18.74 65.3725 17.9V10.22H63.9325V9.32C63.9992 9.30667 64.1858 9.26 64.4925 9.18C64.7992 9.1 65.0058 9.02667 65.1125 8.96C65.3258 8.84 65.4925 8.6 65.6125 8.24C65.7192 7.98667 65.8458 7.58 65.9925 7.02C66.1392 6.46 66.2258 6.12667 66.2525 6.02H67.4325L67.4725 8.9H70.8125V10.22H67.4725V16.36C67.4725 17.12 67.4925 17.6533 67.5325 17.96C67.5858 18.2667 67.6858 18.4667 67.8325 18.56C67.9925 18.6533 68.2592 18.7 68.6325 18.7C68.9925 18.7 69.3858 18.6533 69.8125 18.56C70.2525 18.4667 70.5925 18.3667 70.8325 18.26L71.1325 19.16C70.8125 19.4 70.2925 19.6333 69.5725 19.86C68.8658 20.0867 68.2192 20.2 67.6325 20.2ZM73.437 5.08L71.757 4.86V4L75.017 3.62H75.057L75.497 3.92V8.56L75.417 10.26C75.8437 9.87333 76.4304 9.50667 77.177 9.16C77.9237 8.81333 78.677 8.64 79.437 8.64C80.277 8.64 80.9304 8.8 81.397 9.12C81.8637 9.44 82.1904 9.93333 82.377 10.6C82.5637 11.2533 82.657 12.14 82.657 13.26V18.84L84.057 19.02V20H79.277V19.02L80.577 18.84V13.24C80.577 12.4533 80.5237 11.84 80.417 11.4C80.3104 10.9467 80.1104 10.6133 79.817 10.4C79.5237 10.1733 79.0837 10.06 78.497 10.06C78.017 10.06 77.5037 10.18 76.957 10.42C76.4104 10.66 75.9304 10.94 75.517 11.26V18.84L76.897 19.02V20H72.237V19.02L73.437 18.86V5.08ZM87.9006 6.9C87.474 6.9 87.154 6.78 86.9406 6.54C86.7273 6.3 86.6206 5.99333 86.6206 5.62C86.6206 5.19333 86.7473 4.84 87.0006 4.56C87.2673 4.28 87.6273 4.14 88.0806 4.14C88.534 4.14 88.8673 4.26 89.0806 4.5C89.294 4.74 89.4006 5.04667 89.4006 5.42C89.4006 5.87333 89.2673 6.23333 89.0006 6.5C88.7473 6.76667 88.3873 6.9 87.9206 6.9H87.9006ZM87.1006 10.44L85.5806 10.08V9.02L88.6806 8.64H88.7206L89.1806 9V18.86L90.7806 19.02V20H85.4806V19.02L87.1006 18.84V10.44ZM97.1208 20.22C95.5074 20.22 94.2741 19.6933 93.4208 18.64C92.5808 17.5867 92.1608 16.18 92.1608 14.42C92.1608 13.26 92.3808 12.24 92.8208 11.36C93.2608 10.48 93.8741 9.8 94.6608 9.32C95.4608 8.84 96.3674 8.6 97.3808 8.6C98.6208 8.6 99.5808 8.94667 100.261 9.64C100.954 10.32 101.321 11.3 101.361 12.58C101.361 13.3933 101.314 14.0133 101.221 14.44H94.3408C94.3674 15.76 94.6741 16.8267 95.2608 17.64C95.8474 18.44 96.6808 18.84 97.7608 18.84C98.2941 18.84 98.8474 18.7467 99.4208 18.56C100.007 18.36 100.461 18.1267 100.781 17.86L101.161 18.74C100.774 19.14 100.201 19.4867 99.4408 19.78C98.6808 20.0733 97.9074 20.22 97.1208 20.22ZM99.1608 13.38C99.2008 13.1 99.2208 12.8133 99.2208 12.52C99.2074 11.6533 99.0208 10.9733 98.6608 10.48C98.3141 9.97333 97.7608 9.72 97.0008 9.72C96.2274 9.72 95.6074 10 95.1408 10.56C94.6874 11.12 94.4274 12.06 94.3608 13.38H99.1608ZM103.12 19.02L104.62 18.9V10.44L103.18 10.08V9L105.94 8.64H105.98L106.42 9V9.36L106.36 10.92H106.42C106.553 10.6933 106.793 10.4 107.14 10.04C107.486 9.68 107.933 9.35333 108.48 9.06C109.026 8.75333 109.62 8.6 110.26 8.6C110.526 8.6 110.746 8.63333 110.92 8.7V10.94C110.826 10.8733 110.673 10.8133 110.46 10.76C110.26 10.6933 110.033 10.66 109.78 10.66C108.673 10.66 107.646 11 106.7 11.68V18.88L109.24 19.04V20H103.12V19.02ZM114.1 18.4C114.233 18.6 114.513 18.78 114.94 18.94C115.38 19.1 115.84 19.18 116.32 19.18C117.08 19.18 117.64 19.0333 118 18.74C118.36 18.4467 118.54 18.04 118.54 17.52C118.54 17.16 118.427 16.8467 118.2 16.58C117.973 16.3133 117.653 16.08 117.24 15.88C116.84 15.6667 116.26 15.4133 115.5 15.12C114.473 14.7333 113.72 14.2733 113.24 13.74C112.773 13.1933 112.54 12.48 112.54 11.6C112.54 11.0133 112.713 10.5 113.06 10.06C113.42 9.62 113.907 9.28 114.52 9.04C115.147 8.78667 115.84 8.66 116.6 8.66C117.213 8.66 117.747 8.70667 118.2 8.8C118.667 8.89333 119.04 8.98667 119.32 9.08C119.6 9.17333 119.787 9.23333 119.88 9.26V11.74H118.66L118.26 10.26C118.18 10.1 117.967 9.96667 117.62 9.86C117.273 9.74 116.887 9.68 116.46 9.68C115.86 9.68 115.373 9.81333 115 10.08C114.64 10.3467 114.46 10.7067 114.46 11.16C114.46 11.56 114.553 11.8933 114.74 12.16C114.94 12.4133 115.187 12.62 115.48 12.78C115.773 12.94 116.173 13.1267 116.68 13.34L117.08 13.5C117.827 13.7933 118.433 14.0733 118.9 14.34C119.367 14.6067 119.753 14.96 120.06 15.4C120.38 15.8267 120.54 16.3533 120.54 16.98C120.54 17.9667 120.153 18.7533 119.38 19.34C118.62 19.9267 117.573 20.22 116.24 20.22C115.587 20.22 114.9 20.1333 114.18 19.96C113.473 19.7733 112.893 19.5867 112.44 19.4V16.84H113.74L114.1 18.4ZM38.9 39.42C38.9 38.22 39.1467 37.18 39.64 36.3C40.1333 35.42 40.78 34.7533 41.58 34.3C42.3933 33.8333 43.26 33.6 44.18 33.6C45.86 33.6 47.12 34.1333 47.96 35.2C48.8133 36.2667 49.24 37.6667 49.24 39.4C49.24 40.6133 48.9933 41.66 48.5 42.54C48.0067 43.42 47.3533 44.0867 46.54 44.54C45.74 44.9933 44.88 45.22 43.96 45.22C42.28 45.22 41.0133 44.6867 40.16 43.62C39.32 42.5533 38.9 41.1533 38.9 39.42ZM44.08 44.08C45 44.08 45.7067 43.7 46.2 42.94C46.6933 42.18 46.94 41.0533 46.94 39.56C46.94 38.08 46.7133 36.9067 46.26 36.04C45.8067 35.1733 45.08 34.74 44.08 34.74C43.16 34.74 42.4467 35.12 41.94 35.88C41.4467 36.64 41.2 37.7667 41.2 39.26C41.2 40.74 41.4333 41.9133 41.9 42.78C42.3667 43.6467 43.0933 44.08 44.08 44.08ZM52.668 35.22H50.788V34.3L52.668 33.92V32.98C52.668 32.1533 52.8813 31.3933 53.308 30.7C53.748 30.0067 54.3146 29.46 55.008 29.06C55.7146 28.6467 56.4613 28.44 57.248 28.44C57.7013 28.44 58.0946 28.5 58.428 28.62V30.62C58.308 30.5133 58.068 30.4133 57.708 30.32C57.3613 30.2133 56.9746 30.16 56.548 30.16C55.9213 30.16 55.4613 30.3267 55.168 30.66C54.888 30.98 54.748 31.54 54.748 32.34V33.92H57.508V35.22H54.748V43.86L56.968 44.02V45H50.968V44.02L52.668 43.84V35.22ZM67.2419 45.2C66.4819 45.2 65.9152 45.0267 65.5419 44.68C65.1685 44.3333 64.9819 43.74 64.9819 42.9V35.22H63.5419V34.32C63.6085 34.3067 63.7952 34.26 64.1019 34.18C64.4085 34.1 64.6152 34.0267 64.7219 33.96C64.9352 33.84 65.1019 33.6 65.2219 33.24C65.3285 32.9867 65.4552 32.58 65.6019 32.02C65.7485 31.46 65.8352 31.1267 65.8619 31.02H67.0419L67.0819 33.9H70.4219V35.22H67.0819V41.36C67.0819 42.12 67.1019 42.6533 67.1419 42.96C67.1952 43.2667 67.2952 43.4667 67.4419 43.56C67.6019 43.6533 67.8685 43.7 68.2419 43.7C68.6019 43.7 68.9952 43.6533 69.4219 43.56C69.8619 43.4667 70.2019 43.3667 70.4419 43.26L70.7419 44.16C70.4219 44.4 69.9019 44.6333 69.1819 44.86C68.4752 45.0867 67.8285 45.2 67.2419 45.2ZM73.0464 30.08L71.3664 29.86V29L74.6264 28.62H74.6664L75.1064 28.92V33.56L75.0264 35.26C75.4531 34.8733 76.0397 34.5067 76.7864 34.16C77.5331 33.8133 78.2864 33.64 79.0464 33.64C79.8864 33.64 80.5397 33.8 81.0064 34.12C81.4731 34.44 81.7997 34.9333 81.9864 35.6C82.1731 36.2533 82.2664 37.14 82.2664 38.26V43.84L83.6664 44.02V45H78.8864V44.02L80.1864 43.84V38.24C80.1864 37.4533 80.1331 36.84 80.0264 36.4C79.9197 35.9467 79.7197 35.6133 79.4264 35.4C79.1331 35.1733 78.6931 35.06 78.1064 35.06C77.6264 35.06 77.1131 35.18 76.5664 35.42C76.0197 35.66 75.5397 35.94 75.1264 36.26V43.84L76.5064 44.02V45H71.8464V44.02L73.0464 43.86V30.08ZM90.07 45.22C88.4567 45.22 87.2233 44.6933 86.37 43.64C85.53 42.5867 85.11 41.18 85.11 39.42C85.11 38.26 85.33 37.24 85.77 36.36C86.21 35.48 86.8233 34.8 87.61 34.32C88.41 33.84 89.3167 33.6 90.33 33.6C91.57 33.6 92.53 33.9467 93.21 34.64C93.9033 35.32 94.27 36.3 94.31 37.58C94.31 38.3933 94.2633 39.0133 94.17 39.44H87.29C87.3167 40.76 87.6233 41.8267 88.21 42.64C88.7967 43.44 89.63 43.84 90.71 43.84C91.2433 43.84 91.7967 43.7467 92.37 43.56C92.9567 43.36 93.41 43.1267 93.73 42.86L94.11 43.74C93.7233 44.14 93.15 44.4867 92.39 44.78C91.63 45.0733 90.8567 45.22 90.07 45.22ZM92.11 38.38C92.15 38.1 92.17 37.8133 92.17 37.52C92.1567 36.6533 91.97 35.9733 91.61 35.48C91.2633 34.9733 90.71 34.72 89.95 34.72C89.1767 34.72 88.5567 35 88.09 35.56C87.6367 36.12 87.3767 37.06 87.31 38.38H92.11ZM102.635 43.4C102.768 43.6 103.048 43.78 103.475 43.94C103.915 44.1 104.375 44.18 104.855 44.18C105.615 44.18 106.175 44.0333 106.535 43.74C106.895 43.4467 107.075 43.04 107.075 42.52C107.075 42.16 106.962 41.8467 106.735 41.58C106.508 41.3133 106.188 41.08 105.775 40.88C105.375 40.6667 104.795 40.4133 104.035 40.12C103.008 39.7333 102.255 39.2733 101.775 38.74C101.308 38.1933 101.075 37.48 101.075 36.6C101.075 36.0133 101.248 35.5 101.595 35.06C101.955 34.62 102.442 34.28 103.055 34.04C103.682 33.7867 104.375 33.66 105.135 33.66C105.748 33.66 106.282 33.7067 106.735 33.8C107.202 33.8933 107.575 33.9867 107.855 34.08C108.135 34.1733 108.322 34.2333 108.415 34.26V36.74H107.195L106.795 35.26C106.715 35.1 106.502 34.9667 106.155 34.86C105.808 34.74 105.422 34.68 104.995 34.68C104.395 34.68 103.908 34.8133 103.535 35.08C103.175 35.3467 102.995 35.7067 102.995 36.16C102.995 36.56 103.088 36.8933 103.275 37.16C103.475 37.4133 103.722 37.62 104.015 37.78C104.308 37.94 104.708 38.1267 105.215 38.34L105.615 38.5C106.362 38.7933 106.968 39.0733 107.435 39.34C107.902 39.6067 108.288 39.96 108.595 40.4C108.915 40.8267 109.075 41.3533 109.075 41.98C109.075 42.9667 108.688 43.7533 107.915 44.34C107.155 44.9267 106.108 45.22 104.775 45.22C104.122 45.22 103.435 45.1333 102.715 44.96C102.008 44.7733 101.428 44.5867 100.975 44.4V41.84H102.275L102.635 43.4ZM110.873 39.42C110.873 38.22 111.119 37.18 111.613 36.3C112.106 35.42 112.753 34.7533 113.553 34.3C114.366 33.8333 115.233 33.6 116.153 33.6C117.833 33.6 119.093 34.1333 119.933 35.2C120.786 36.2667 121.213 37.6667 121.213 39.4C121.213 40.6133 120.966 41.66 120.473 42.54C119.979 43.42 119.326 44.0867 118.513 44.54C117.713 44.9933 116.853 45.22 115.933 45.22C114.253 45.22 112.986 44.6867 112.133 43.62C111.293 42.5533 110.873 41.1533 110.873 39.42ZM116.053 44.08C116.973 44.08 117.679 43.7 118.173 42.94C118.666 42.18 118.913 41.0533 118.913 39.56C118.913 38.08 118.686 36.9067 118.233 36.04C117.779 35.1733 117.053 34.74 116.053 34.74C115.133 34.74 114.419 35.12 113.913 35.88C113.419 36.64 113.173 37.7667 113.173 39.26C113.173 40.74 113.406 41.9133 113.873 42.78C114.339 43.6467 115.066 44.08 116.053 44.08ZM132.141 45.18C131.767 45.18 131.487 45.1067 131.301 44.96C131.127 44.8133 131.041 44.5733 131.041 44.24V43.56C130.601 44 130.047 44.3867 129.381 44.72C128.727 45.0533 128.067 45.22 127.401 45.22C126.161 45.22 125.281 44.8867 124.761 44.22C124.241 43.5533 123.981 42.4533 123.981 40.92V35.12L122.861 34.8V33.92L125.661 33.66H125.681L126.061 33.9V40.76C126.061 41.5333 126.114 42.14 126.221 42.58C126.341 43.0067 126.541 43.3267 126.821 43.54C127.114 43.74 127.534 43.84 128.081 43.84C128.614 43.84 129.114 43.7267 129.581 43.5C130.047 43.2733 130.454 43.0067 130.801 42.7V35.12L129.361 34.8V33.92L132.401 33.66H132.421L132.881 33.9V43.98H134.081L134.061 44.88C133.687 44.9733 133.361 45.0467 133.081 45.1C132.814 45.1533 132.501 45.18 132.141 45.18ZM139.097 45.2C138.337 45.2 137.771 45.0267 137.397 44.68C137.024 44.3333 136.837 43.74 136.837 42.9V35.22H135.397V34.32C135.464 34.3067 135.651 34.26 135.957 34.18C136.264 34.1 136.471 34.0267 136.577 33.96C136.791 33.84 136.957 33.6 137.077 33.24C137.184 32.9867 137.311 32.58 137.457 32.02C137.604 31.46 137.691 31.1267 137.717 31.02H138.897L138.937 33.9H142.277V35.22H138.937V41.36C138.937 42.12 138.957 42.6533 138.997 42.96C139.051 43.2667 139.151 43.4667 139.297 43.56C139.457 43.6533 139.724 43.7 140.097 43.7C140.457 43.7 140.851 43.6533 141.277 43.56C141.717 43.4667 142.057 43.3667 142.297 43.26L142.597 44.16C142.277 44.4 141.757 44.6333 141.037 44.86C140.331 45.0867 139.684 45.2 139.097 45.2ZM144.902 30.08L143.222 29.86V29L146.482 28.62H146.522L146.962 28.92V33.56L146.882 35.26C147.309 34.8733 147.895 34.5067 148.642 34.16C149.389 33.8133 150.142 33.64 150.902 33.64C151.742 33.64 152.395 33.8 152.862 34.12C153.329 34.44 153.655 34.9333 153.842 35.6C154.029 36.2533 154.122 37.14 154.122 38.26V43.84L155.522 44.02V45H150.742V44.02L152.042 43.84V38.24C152.042 37.4533 151.989 36.84 151.882 36.4C151.775 35.9467 151.575 35.6133 151.282 35.4C150.989 35.1733 150.549 35.06 149.962 35.06C149.482 35.06 148.969 35.18 148.422 35.42C147.875 35.66 147.395 35.94 146.982 36.26V43.84L148.362 44.02V45H143.702V44.02L144.902 43.86V30.08Z" fill="black"/>
</svg>
